{
  "accessors": [
    {
      "bufferView": 3,
      "componentType": 5126,
      "count": 4210,
      "max": [
        106.11334228515625,
        50.0,
        143.32337951660156
      ],
      "min": [
        -106.10830688476563,
        -55.9830322265625,
        0.0
      ],
      "type": "VEC3"
    },
    {
      "bufferView": 3,
      "byteOffset": 50520,
      "componentType": 5126,
      "count": 4210,
      "max": [
        1.0,
        1.0,
        1.0
      ],
      "min": [
        -1.0,
        -1.0,
        -1.0
      ],
      "type": "VEC3"
    },
    {
      "bufferView": 4,
      "componentType": 5126,
      "count": 4210,
      "max": [
        1.0,
        1.0,
        1.0,
        1.0
      ],
      "min": [
        -1.0,
        -1.0,
        -1.0,
        1.0
      ],
      "type": "VEC4"
    },
    {
      "bufferView": 4,
      "byteOffset": 67360,
      "componentType": 5126,
      "count": 4210,
      "max": [
        0.32549020648002625,
        0.4470588266849518,
        0.5098039507865906,
        1.0
      ],
      "min": [
        0.23137255012989044,
        0.21176470816135406,
        0.21176470816135406,
        1.0
      ],
      "type": "VEC4"
    },
    {
      "bufferView": 2,
      "componentType": 5126,
      "count": 4210,
      "max": [
        0.9985536932945251,
        0.9999949932098389
      ],
      "min": [
        5.030683041695738e-06,
        5.032205990573857e-06
      ],
      "type": "VEC2"
    },
    {
      "bufferView": 1,
      "componentType": 5125,
      "count": 12852,
      "type": "SCALAR"
    },
    {
      "bufferView": 3,
      "byteOffset": 101040,
      "componentType": 5126,
      "count": 422,
      "max": [
        95.50000762939453,
        45.05253601074219,
        139.93374633789063
      ],
      "min": [
        -95.50000762939453,
        -45.05253601074219,
        11.250000953674316
      ],
      "type": "VEC3"
    },
    {
      "bufferView": 3,
      "byteOffset": 106104,
      "componentType": 5126,
      "count": 422,
      "max": [
        1.0,
        1.0,
        1.0
      ],
      "min": [
        -1.0,
        -1.0,
        -1.0
      ],
      "type": "VEC3"
    },
    {
      "bufferView": 4,
      "byteOffset": 134720,
      "componentType": 5126,
      "count": 422,
      "max": [
        1.0,
        1.0,
        1.0,
        1.0
      ],
      "min": [
        -1.0,
        -0.022424204275012016,
        -1.0,
        -1.0
      ],
      "type": "VEC4"
    },
    {
      "bufferView": 4,
      "byteOffset": 141472,
      "componentType": 5126,
      "count": 422,
      "max": [
        0.239215686917305,
        0.250980406999588,
        0.21568627655506134,
        1.0
      ],
      "min": [
        0.23137255012989044,
        0.239215686917305,
        0.20000000298023224,
        1.0
      ],
      "type": "VEC4"
    },
    {
      "bufferView": 2,
      "byteOffset": 33680,
      "componentType": 5126,
      "count": 422,
      "max": [
        0.9999949932098389,
        0.9999949932098389
      ],
      "min": [
        5.030683041695738e-06,
        5.032205990573857e-06
      ],
      "type": "VEC2"
    },
    {
      "bufferView": 1,
      "byteOffset": 51408,
      "componentType": 5125,
      "count": 912,
      "type": "SCALAR"
    },
    {
      "bufferView": 5,
      "componentType": 5126,
      "count": 3,
      "max": [
        1.0,
        0.0,
        1.2246468525851679e-16,
        0.0,
        1.2246468525851679e-16,
        1.0,
        1.0,
        0.0,
        0.0,
        1.0,
        1.0,
        0.0,
        1.2139846419789713e-12,
        0.0,
        49.5,
        1.0
      ],
      "min": [
        -1.0,
        -1.4210854715202004e-14,
        -2.3841856489070778e-07,
        0.0,
        0.0,
        -1.0,
        0.0,
        0.0,
        -2.3841856489070778e-07,
        0.0,
        -5.678218515498511e-14,
        0.0,
        0.0,
        -85.0,
        0.0,
        1.0
      ],
      "type": "MAT4"
    },
    {
      "bufferView": 0,
      "componentType": 5123,
      "count": 4210,
      "type": "VEC4"
    },
    {
      "bufferView": 4,
      "byteOffset": 148224,
      "componentType": 5126,
      "count": 4210,
      "max": [
        1.0,
        0.0,
        0.0,
        0.0
      ],
      "min": [
        1.0,
        0.0,
        0.0,
        0.0
      ],
      "type": "VEC4"
    },
    {
      "bufferView": 0,
      "byteOffset": 33680,
      "componentType": 5123,
      "count": 422,
      "type": "VEC4"
    },
    {
      "bufferView": 4,
      "byteOffset": 215584,
      "componentType": 5126,
      "count": 422,
      "max": [
        1.0,
        0.0,
        0.0,
        0.0
      ],
      "min": [
        1.0,
        0.0,
        0.0,
        0.0
      ],
      "type": "VEC4"
    },
    {
      "bufferView": 6,
      "componentType": 5126,
      "count": 4,
      "max": [
        1.9666666984558105
      ],
      "min": [
        0.0
      ],
      "type": "SCALAR"
    },
    {
      "bufferView": 7,
      "componentType": 5126,
      "count": 4,
      "max": [
        1.0,
        1.0,
        1.0
      ],
      "min": [
        1.0,
        0.9999999403953552,
        0.9999999403953552
      ],
      "type": "VEC3"
    },
    {
      "bufferView": 6,
      "byteOffset": 16,
      "componentType": 5126,
      "count": 60,
      "max": [
        1.9666666984558105
      ],
      "min": [
        0.0
      ],
      "type": "SCALAR"
    },
    {
      "bufferView": 8,
      "componentType": 5126,
      "count": 60,
      "max": [
        0.7071068286895752,
        -8.429369557916289e-08,
        8.429370268459024e-08,
        1.0
      ],
      "min": [
        -6.71794140316706e-08,
        -1.1920927533992653e-07,
        -8.008413607285027e-15,
        0.7071067094802856
      ],
      "type": "VEC4"
    },
    {
      "bufferView": 6,
      "byteOffset": 256,
      "componentType": 5126,
      "count": 1,
      "max": [
        0.0
      ],
      "min": [
        0.0
      ],
      "type": "SCALAR"
    },
    {
      "bufferView": 8,
      "byteOffset": 960,
      "componentType": 5126,
      "count": 1,
      "max": [
        0.0,
        0.0,
        1.0,
        6.123234262925839e-17
      ],
      "min": [
        0.0,
        0.0,
        1.0,
        6.123234262925839e-17
      ],
      "type": "VEC4"
    },
    {
      "bufferView": 6,
      "byteOffset": 260,
      "componentType": 5126,
      "count": 4,
      "max": [
        1.9666666984558105
      ],
      "min": [
        0.0
      ],
      "type": "SCALAR"
    },
    {
      "bufferView": 7,
      "byteOffset": 48,
      "componentType": 5126,
      "count": 4,
      "max": [
        1.0,
        1.0,
        0.9999999403953552
      ],
      "min": [
        1.0,
        0.9999999403953552,
        0.9999998807907104
      ],
      "type": "VEC3"
    },
    {
      "bufferView": 6,
      "byteOffset": 276,
      "componentType": 5126,
      "count": 60,
      "max": [
        1.9666666984558105
      ],
      "min": [
        0.0
      ],
      "type": "SCALAR"
    },
    {
      "bufferView": 8,
      "byteOffset": 976,
      "componentType": 5126,
      "count": 60,
      "max": [
        0.7071068286895752,
        -8.429369557916289e-08,
        8.429370268459024e-08,
        1.0
      ],
      "min": [
        -6.71794140316706e-08,
        -1.1920927533992653e-07,
        -8.008413607285027e-15,
        0.7071067094802856
      ],
      "type": "VEC4"
    },
    {
      "bufferView": 6,
      "byteOffset": 516,
      "componentType": 5126,
      "count": 1,
      "max": [
        0.0
      ],
      "min": [
        0.0
      ],
      "type": "SCALAR"
    },
    {
      "bufferView": 8,
      "byteOffset": 1936,
      "componentType": 5126,
      "count": 1,
      "max": [
        0.0,
        0.0,
        1.0,
        6.123234262925839e-17
      ],
      "min": [
        0.0,
        0.0,
        1.0,
        6.123234262925839e-17
      ],
      "type": "VEC4"
    }
  ],
  "animations": [
    {
      "channels": [
        {
          "sampler": 0,
          "target": {
            "node": 8,
            "path": "scale"
          }
        },
        {
          "sampler": 1,
          "target": {
            "node": 8,
            "path": "rotation"
          }
        },
        {
          "sampler": 2,
          "target": {
            "node": 4,
            "path": "rotation"
          }
        }
      ],
      "name": "Armature|A_Open",
      "samplers": [
        {
          "input": 17,
          "interpolation": "LINEAR",
          "output": 18
        },
        {
          "input": 19,
          "interpolation": "LINEAR",
          "output": 20
        },
        {
          "input": 21,
          "interpolation": "LINEAR",
          "output": 22
        }
      ]
    },
    {
      "channels": [
        {
          "sampler": 0,
          "target": {
            "node": 8,
            "path": "scale"
          }
        },
        {
          "sampler": 1,
          "target": {
            "node": 8,
            "path": "rotation"
          }
        },
        {
          "sampler": 2,
          "target": {
            "node": 4,
            "path": "rotation"
          }
        }
      ],
      "name": "Armature|A_Close",
      "samplers": [
        {
          "input": 23,
          "interpolation": "LINEAR",
          "output": 24
        },
        {
          "input": 25,
          "interpolation": "LINEAR",
          "output": 26
        },
        {
          "input": 27,
          "interpolation": "LINEAR",
          "output": 28
        }
      ]
    }
  ],
  "asset": {
    "extras": {
      "author": "Multipainkiller Studio (https://sketchfab.com/Multipainkiller_Studio)",
      "license": "CC-BY-4.0 (http://creativecommons.org/licenses/by/4.0/)",
      "source": "https://sketchfab.com/3d-models/treasure-chest-b124919b7bc3470c82daeef72823f941",
      "title": "Treasure Chest"
    },
    "generator": "Sketchfab-12.68.0",
    "version": "2.0"
  },
  "bufferViews": [
    {
      "buffer": 0,
      "byteLength": 37056,
      "byteStride": 8,
      "name": "shortBufferViews",
      "target": 34962
    },
    {
      "buffer": 0,
      "byteLength": 55056,
      "byteOffset": 37056,
      "name": "floatBufferViews",
      "target": 34963
    },
    {
      "buffer": 0,
      "byteLength": 37056,
      "byteOffset": 92112,
      "byteStride": 8,
      "name": "floatBufferViews",
      "target": 34962
    },
    {
      "buffer": 0,
      "byteLength": 111168,
      "byteOffset": 129168,
      "byteStride": 12,
      "name": "floatBufferViews",
      "target": 34962
    },
    {
      "buffer": 0,
      "byteLength": 222336,
      "byteOffset": 240336,
      "byteStride": 16,
      "name": "floatBufferViews",
      "target": 34962
    },
    {
      "buffer": 0,
      "byteLength": 192,
      "byteOffset": 462672,
      "name": "floatBufferViews"
    },
    {
      "buffer": 0,
      "byteLength": 520,
      "byteOffset": 462864,
      "name": "floatBufferViews"
    },
    {
      "buffer": 0,
      "byteLength": 96,
      "byteOffset": 463384,
      "byteStride": 12,
      "name": "floatBufferViews"
    },
    {
      "buffer": 0,
      "byteLength": 1952,
      "byteOffset": 463480,
      "byteStride": 16,
      "name": "floatBufferViews"
    }
  ],
  "buffers": [
    {
      "byteLength": 465432,
      "uri": "scene.bin"
    }
  ],
  "images": [
    {
      "uri": "textures/M_Chest_Reinforcment_baseColor.jpeg"
    },
    {
      "uri": "textures/M_Chest_Reinforcment_metallicRoughness.png"
    },
    {
      "uri": "textures/M_Chest_Reinforcment_normal.png"
    },
    {
      "uri": "textures/M_Chest_Wood_baseColor.jpeg"
    },
    {
      "uri": "textures/M_Chest_Wood_metallicRoughness.png"
    },
    {
      "uri": "textures/M_Chest_Wood_normal.png"
    }
  ],
  "materials": [
    {
      "name": "M_Chest_Reinforcment",
      "normalTexture": {
        "index": 2
      },
      "occlusionTexture": {
        "index": 1
      },
      "pbrMetallicRoughness": {
        "baseColorTexture": {
          "index": 0
        },
        "metallicFactor": 0.8370807926829268,
        "metallicRoughnessTexture": {
          "index": 1
        }
      }
    },
    {
      "name": "M_Chest_Wood",
      "normalTexture": {
        "index": 5
      },
      "occlusionTexture": {
        "index": 4
      },
      "pbrMetallicRoughness": {
        "baseColorTexture": {
          "index": 3
        },
        "metallicRoughnessTexture": {
          "index": 4
        }
      }
    }
  ],
  "meshes": [
    {
      "name": "SM_Chest_M_Chest_Reinforcment_0",
      "primitives": [
        {
          "attributes": {
            "COLOR_0": 3,
            "JOINTS_0": 13,
            "NORMAL": 1,
            "POSITION": 0,
            "TANGENT": 2,
            "TEXCOORD_0": 4,
            "WEIGHTS_0": 14
          },
          "indices": 5,
          "material": 0,
          "mode": 4
        }
      ]
    },
    {
      "name": "SM_Chest_M_Chest_Wood_0",
      "primitives": [
        {
          "attributes": {
            "COLOR_0": 9,
            "JOINTS_0": 15,
            "NORMAL": 7,
            "POSITION": 6,
            "TANGENT": 8,
            "TEXCOORD_0": 10,
            "WEIGHTS_0": 16
          },
          "indices": 11,
          "material": 1,
          "mode": 4
        }
      ]
    }
  ],
  "nodes": [
    {
      "children": [
        1
      ],
      "matrix": [
        -0.012404276989400387,
        3.513845558006016e-18,
        1.994759844808876e-18,
        0.0,
        -1.9947598448088754e-18,
        4.749062628300941e-18,
        -0.012404276989400387,
        0.0,
        -3.513845558006017e-18,
        -0.012404276989400387,
        -4.749062628300941e-18,
        0.0,
        0.0050064558163285255,
        -143.32337951660156,
        -1.3143427199785091e-05,
        1.0
      ],
      "name": "Sketchfab_model"
    },
    {
      "children": [
        2
      ],
      "matrix": [
        1.0,
        0.0,
        0.0,
        0.0,
        0.0,
        -1.0,
        0.0,
        0.0,
        0.0,
        0.0,
        -1.0,
        0.0,
        0.0,
        0.0,
        0.0,
        1.0
      ],
      "name": "Chest.fbx"
    },
    {
      "children": [
        3
      ],
      "name": "Object_2"
    },
    {
      "children": [
        4,
        12
      ],
      "name": "RootNode"
    },
    {
      "children": [
        5
      ],
      "name": "Armature",
      "rotation": [
        0.0,
        0.0,
        1.0,
        -4.371138828673793e-08
      ]
    },
    {
      "children": [
        6,
        10,
        11,
        9
      ],
      "name": "Object_5"
    },
    {
      "children": [
        7
      ],
      "name": "_rootJoint"
    },
    {
      "children": [
        8
      ],
      "name": "root_00",
      "rotation": [
        0.0,
        1.1920928244535389e-07,
        0.0,
        1.0
      ]
    },
    {
      "name": "top_01",
      "rotation": [
        0.7071068286895752,
        -8.429368847373553e-08,
        8.429370268459024e-08,
        0.7071067094802856
      ],
      "scale": [
        1.0,
        1.0,
        0.9999999403953552
      ],
      "translation": [
        -2.026557740464341e-05,
        49.499996185302734,
        85.0
      ]
    },
    {
      "matrix": [
        -1.0000000000000568,
        1.2246467991474227e-16,
        0.0,
        0.0,
        -1.2246467991473532e-16,
        -1.0,
        0.0,
        0.0,
        0.0,
        0.0,
        1.0000000000000568,
        0.0,
        0.0,
        0.0,
        0.0,
        1.0
      ],
      "name": "Object_9"
    },
    {
      "mesh": 0,
      "name": "Object_10",
      "skin": 0
    },
    {
      "mesh": 1,
      "name": "Object_11",
      "skin": 0
    },
    {
      "name": "SM_Chest",
      "rotation": [
        0.0,
        0.0,
        1.0,
        -4.371138828673793e-08
      ]
    }
  ],
  "samplers": [
    {
      "magFilter": 9729,
      "minFilter": 9987,
      "wrapS": 10497,
      "wrapT": 10497
    }
  ],
  "scene": 0,
  "scenes": [
    {
      "name": "Sketchfab_Scene",
      "nodes": [
        0
      ]
    }
  ],
  "skins": [
    {
      "inverseBindMatrices": 12,
      "joints": [
        6,
        7,
        8
      ],
      "skeleton": 6
    }
  ],
  "textures": [
    {
      "sampler": 0,
      "source": 0
    },
    {
      "sampler": 0,
      "source": 1
    },
    {
      "sampler": 0,
      "source": 2
    },
    {
      "sampler": 0,
      "source": 3
    },
    {
      "sampler": 0,
      "source": 4
    },
    {
      "sampler": 0,
      "source": 5
    }
  ]
}
